<svg version="1.1" viewBox="0 0 96 96" xmlns="http://www.w3.org/2000/svg" xmlns:xlink="http://www.w3.org/1999/xlink" id="Icons_Truck" overflow="hidden"><style>
.MsftOfcThm_Text1_lumMod_65_lumOff_35_Fill {
 fill:#595959; 
}
</style>
<circle cx="20" cy="66" r="7" stroke="none" stroke-width="1" stroke-dasharray="" stroke-dashoffset="1" fill="#595959" fill-opacity="1"/><circle cx="78" cy="66" r="7" stroke="none" stroke-width="1" stroke-dasharray="" stroke-dashoffset="1" fill="#595959" fill-opacity="1"/><rect x="4" y="24" width="56" height="24" stroke="none" stroke-width="1" stroke-dasharray="" stroke-dashoffset="1" fill="#595959" fill-opacity="1"/><path d=" M 68 34 L 74 34 C 75.8 34 77.4 35.2 77.8 36.9 L 79.8 43.8 C 79.8 43.9 79.9 43.9 79.9 44 L 68 44 L 68 34 Z M 74 30 L 64 30 L 64 44 L 64 50 L 64 66 L 68 66 C 68 60.5 72.5 56 78 56 C 83.5 56 88 60.5 88 66 C 90.2 66 92 64.2 92 62 L 92 52 C 92 50.7 91.4 49.6 90.4 48.8 L 85.1 44.8 C 84.4 44.3 83.9 43.5 83.7 42.7 L 81.7 35.8 C 80.7 32.4 77.5 30 74 30 Z" stroke="none" stroke-width="1" stroke-dasharray="" stroke-dashoffset="1" fill="#595959" fill-opacity="1"/><path d=" M 60 66 L 30 66 C 30 60.5 25.5 56 20 56 C 14.5 56 10 60.5 10 66 L 4 66 L 4 52 L 60 52 L 60 66 Z" stroke="none" stroke-width="1" stroke-dasharray="" stroke-dashoffset="1" fill="#595959" fill-opacity="1"/></svg>